<svg width="459" height="459" viewBox="0 0 459 459" fill="none" xmlns="http://www.w3.org/2000/svg">
<path fill-rule="evenodd" clip-rule="evenodd" d="M251.309 1.87695C236.578 0.447266 221.75 0.447266 207.031 1.87695L199.738 37.377C185.629 39.5371 171.789 43.248 158.488 48.4277L134.43 21.3379C120.961 27.459 108.121 34.8691 96.0898 43.4668L107.52 77.8574C96.3789 86.7871 86.25 96.9082 77.3281 108.057L42.9414 96.6191C34.3398 108.658 26.9219 121.498 20.8008 134.959L47.8984 159.029C42.7109 172.326 39.0117 186.158 36.8516 200.268L1.35156 207.568C-0.0781249 222.287 -0.0781249 237.119 1.35156 251.838L36.8516 259.127C39.0117 273.236 42.7109 287.076 47.8984 300.377L20.8008 324.439C26.9219 337.908 34.3398 350.748 42.9414 362.779L77.3281 351.35C86.25 362.486 96.3789 372.619 107.52 381.537L96.0898 415.928C108.121 424.529 120.961 431.947 134.43 438.068L158.488 410.967C171.789 416.158 185.629 419.857 199.738 422.018L207.031 457.518C221.75 458.947 236.578 458.947 251.309 457.518L258.602 422.018C272.711 419.857 286.539 416.158 299.84 410.967L323.91 438.068C337.371 431.947 350.211 424.529 362.25 415.928L350.809 381.537C361.961 372.619 372.078 362.486 381.012 351.35L415.398 362.779C424 350.748 431.41 337.908 437.531 324.439L410.441 300.377C415.621 287.076 419.328 273.236 421.488 259.127L456.988 251.838C458.422 237.119 458.422 222.287 456.988 207.568L421.488 200.268C419.328 186.158 415.621 172.326 410.441 159.029L437.531 134.959C431.41 121.498 424 108.658 415.398 96.6191L381.012 108.057C372.078 96.9082 361.961 86.7871 350.809 77.8574L362.25 43.4668C350.211 34.8691 337.371 27.459 323.91 21.3379L299.84 48.4277C286.539 43.248 272.711 39.5371 258.602 37.377L251.309 1.87695ZM229.172 183.92C254.43 183.92 274.949 204.439 274.949 229.697C274.949 254.967 254.43 275.479 229.172 275.479C203.898 275.479 183.391 254.967 183.391 229.697C183.391 204.439 203.898 183.92 229.172 183.92Z" fill="black"/>
</svg>
