<svg width="5530" height="5529" viewBox="0 0 5530 5529" fill="none" xmlns="http://www.w3.org/2000/svg">
<path fill-rule="evenodd" clip-rule="evenodd" d="M3031.86 12.9542C2854.03 -4.31808 2674.98 -4.31808 2497.14 12.9542L2409.05 441.725C2238.62 467.788 2071.58 512.554 1910.91 575.208L1620.27 247.903C1457.65 321.849 1302.57 411.422 1157.17 515.27L1295.3 930.622C1160.74 1038.44 1038.43 1160.71 930.645 1295.28L515.28 1157.18C411.405 1302.55 321.873 1457.62 247.927 1620.28L575.191 1910.93C512.551 2071.56 467.784 2238.64 441.722 2409.07L12.9643 2497.12C-4.32143 2674.95 -4.32143 2854.04 12.9643 3031.88L441.722 3119.94C467.784 3290.4 512.551 3457.44 575.191 3618.07L247.927 3908.71C321.873 4071.38 411.405 4226.45 515.28 4371.81L930.645 4233.72C1038.43 4368.28 1160.74 4490.57 1295.3 4598.37L1157.17 5013.74C1302.57 5117.62 1457.65 5207.15 1620.27 5281.09L1910.91 4953.83C2071.58 5016.44 2238.62 5061.21 2409.05 5087.3L2497.14 5516.06C2674.98 5533.31 2854.03 5533.31 3031.86 5516.06L3119.95 5087.3C3290.38 5061.21 3457.42 5016.44 3618.09 4953.83L3908.74 5281.09C4071.36 5207.15 4226.45 5117.62 4371.84 5013.74L4233.7 4598.37C4368.28 4490.57 4490.58 4368.28 4598.37 4233.72L5013.72 4371.81C5117.6 4226.45 5207.13 4071.38 5281.08 3908.71L4953.81 3618.07C5016.47 3457.44 5061.19 3290.4 5087.3 3119.94L5516.04 3031.88C5533.34 2854.04 5533.34 2674.95 5516.04 2497.12L5087.3 2409.07C5061.19 2238.64 5016.47 2071.56 4953.81 1910.93L5281.08 1620.28C5207.13 1457.62 5117.6 1302.55 5013.72 1157.18L4598.37 1295.28C4490.58 1160.71 4368.28 1038.44 4233.7 930.622L4371.84 515.27C4226.45 411.422 4071.36 321.849 3908.74 247.903L3618.09 575.208C3457.42 512.554 3290.38 467.788 3119.95 441.725L3031.86 12.9542ZM2764.51 1006.9C3734.54 1006.9 4522.1 1794.45 4522.1 2764.51C4522.1 3734.56 3734.54 4522.1 2764.51 4522.1C1794.46 4522.1 1006.92 3734.56 1006.92 2764.51C1006.92 1794.45 1794.46 1006.9 2764.51 1006.9ZM2769.47 1226.16C3616.31 1228.91 4302.86 1917.16 4302.86 2764.51C4302.86 3611.83 3616.31 4300.09 2769.47 4302.83L2764.51 4302.87C1915.48 4302.87 1226.15 3613.54 1226.15 2764.51C1226.15 1915.45 1915.48 1226.16 2764.51 1226.16H2769.47ZM2764.51 1510.33C2418.41 1510.33 2104.91 1650.87 1877.89 1877.88C1650.89 2104.89 1510.33 2418.42 1510.33 2764.51C1510.33 3110.59 1650.89 3424.11 1877.89 3651.13C2104.91 3878.13 2418.41 4018.66 2764.51 4018.66H2768.55C3113.03 4017.56 3424.99 3877.25 3651.11 3651.13C3878.11 3424.11 4018.69 3110.59 4018.69 2764.51C4018.69 2418.42 3878.11 2104.89 3651.11 1877.88C3424.99 1651.76 3113.03 1511.43 2768.55 1510.33H2764.51Z" fill="url(#paint0_linear_61_16)"/>
<defs>
<linearGradient id="paint0_linear_61_16" x1="2764.51" y1="0" x2="2764.51" y2="5529" gradientUnits="userSpaceOnUse">
<stop offset="1"/>
<stop offset="1" stop-color="#666666"/>
</linearGradient>
</defs>
</svg>
