<svg width="754" height="755" viewBox="0 0 754 755" fill="none" xmlns="http://www.w3.org/2000/svg">
<path fill-rule="evenodd" clip-rule="evenodd" d="M413.559 2.62891C389.328 0.269531 364.922 0.269531 340.691 2.62891L328.691 61.0586C305.461 64.6094 282.699 70.7109 260.809 79.2383L221.199 34.6484C199.039 44.7187 177.91 56.9219 158.102 71.0781L176.922 127.68C158.578 142.371 141.91 159.031 127.219 177.371L70.6289 158.551C56.4688 178.359 44.2695 199.488 34.1914 221.66L78.7891 261.262C70.25 283.148 64.1602 305.922 60.6016 329.141L2.17969 341.141C-0.179688 365.371 -0.179688 389.781 2.17969 414.012L60.6016 426.012C64.1602 449.238 70.25 472 78.7891 493.891L34.1914 533.5C44.2695 555.66 56.4688 576.789 70.6289 596.602L127.219 577.781C141.91 596.121 158.578 612.781 176.922 627.48L158.102 684.07C177.91 698.23 199.039 710.43 221.199 720.512L260.809 675.91C282.699 684.441 305.461 690.539 328.691 694.102L340.691 752.52C364.922 754.879 389.328 754.879 413.559 752.52L425.559 694.102C448.781 690.539 471.551 684.441 493.441 675.91L533.039 720.512C555.211 710.43 576.34 698.23 596.148 684.07L577.328 627.48C595.672 612.781 612.328 596.121 627.02 577.781L683.621 596.602C697.781 576.789 709.98 555.66 720.051 533.5L675.461 493.891C683.988 472 690.09 449.238 693.641 426.012L752.07 414.012C754.43 389.781 754.43 365.371 752.07 341.141L693.641 329.141C690.09 305.922 683.988 283.148 675.461 261.262L720.051 221.66C709.98 199.488 697.781 178.359 683.621 158.551L627.02 177.371C612.328 159.031 595.672 142.371 577.328 127.68L596.148 71.0781C576.34 56.9219 555.211 44.7187 533.039 34.6484L493.441 79.2383C471.551 70.7109 448.781 64.6094 425.559 61.0586L413.559 2.62891ZM377.121 138.07C509.309 138.07 616.629 245.391 616.629 377.578C616.629 509.762 509.309 617.078 377.121 617.078C244.941 617.078 137.621 509.762 137.621 377.578C137.621 245.391 244.941 138.07 377.121 138.07Z" fill="black"/>
</svg>
