<svg width="2370" height="1916" viewBox="0 0 2370 1916" fill="none" xmlns="http://www.w3.org/2000/svg">
<path fill-rule="evenodd" clip-rule="evenodd" d="M2029.56 1060.63C2005.33 1058.27 1980.92 1058.27 1956.69 1060.63L1944.69 1119.06C1921.46 1122.61 1898.7 1128.71 1876.81 1137.24L1837.2 1092.65C1815.04 1102.72 1793.91 1114.92 1774.1 1129.08L1792.92 1185.68C1774.58 1200.37 1757.91 1217.03 1743.22 1235.37L1686.63 1216.55C1672.47 1236.36 1660.27 1257.49 1650.19 1279.66L1694.79 1319.26C1686.25 1341.15 1680.16 1363.92 1676.6 1387.14L1618.18 1399.14C1615.82 1423.37 1615.82 1447.78 1618.18 1472.01L1676.6 1484.01C1680.16 1507.24 1686.25 1530 1694.79 1551.89L1650.19 1591.5C1660.27 1613.66 1672.47 1634.79 1686.63 1654.6L1743.22 1635.78C1757.91 1654.12 1774.58 1670.78 1792.92 1685.48L1774.1 1742.07C1793.91 1756.23 1815.04 1768.43 1837.2 1778.51L1876.81 1733.91C1898.7 1742.44 1921.46 1748.54 1944.69 1752.1L1956.69 1810.52C1980.92 1812.88 2005.33 1812.88 2029.56 1810.52L2041.56 1752.1C2064.78 1748.54 2087.55 1742.44 2109.44 1733.91L2149.04 1778.51C2171.21 1768.43 2192.34 1756.23 2212.15 1742.07L2193.33 1685.48C2211.67 1670.78 2228.33 1654.12 2243.02 1635.78L2299.62 1654.6C2313.78 1634.79 2325.98 1613.66 2336.05 1591.5L2291.46 1551.89C2299.99 1530 2306.09 1507.24 2309.64 1484.01L2368.07 1472.01C2370.43 1447.78 2370.43 1423.37 2368.07 1399.14L2309.64 1387.14C2306.09 1363.92 2299.99 1341.15 2291.46 1319.26L2336.05 1279.66C2325.98 1257.49 2313.78 1236.36 2299.62 1216.55L2243.02 1235.37C2228.33 1217.03 2211.67 1200.37 2193.33 1185.68L2212.15 1129.08C2192.34 1114.92 2171.21 1102.72 2149.04 1092.65L2109.44 1137.24C2087.55 1128.71 2064.78 1122.61 2041.56 1119.06L2029.56 1060.63ZM1993.12 1196.07C2125.31 1196.07 2232.63 1303.39 2232.63 1435.58C2232.63 1567.76 2125.31 1675.08 1993.12 1675.08C1860.94 1675.08 1753.62 1567.76 1753.62 1435.58C1753.62 1303.39 1860.94 1196.07 1993.12 1196.07Z" fill="black"/>
<path fill-rule="evenodd" clip-rule="evenodd" d="M886.16 3.78223C834.238 -1.26074 781.961 -1.26074 730.039 3.78223L704.32 128.97C654.559 136.579 605.789 149.649 558.879 167.942L474.02 72.3799C426.539 93.9697 381.262 120.122 338.809 150.442L379.141 271.712C339.852 303.192 304.141 338.892 272.672 378.181L151.398 337.86C121.07 380.302 94.9297 425.579 73.3398 473.071L168.891 557.931C150.602 604.829 137.531 653.61 129.922 703.372L4.73828 729.079C-0.308594 781.001 -0.308594 833.29 4.73828 885.212L129.922 910.923C137.531 960.692 150.602 1009.46 168.891 1056.36L73.3398 1141.22C94.9297 1188.71 121.07 1233.99 151.398 1276.43L272.672 1236.11C304.141 1275.4 339.852 1311.1 379.141 1342.58L338.809 1463.85C381.262 1494.18 426.539 1520.32 474.02 1541.91L558.879 1446.36C605.789 1464.64 654.559 1477.71 704.32 1485.33L730.039 1610.51C781.961 1615.55 834.238 1615.55 886.16 1610.51L911.879 1485.33C961.641 1477.71 1010.41 1464.64 1057.32 1446.36L1142.18 1541.91C1189.66 1520.32 1234.94 1494.18 1277.39 1463.85L1237.06 1342.58C1276.35 1311.1 1312.06 1275.4 1343.53 1236.11L1464.8 1276.43C1495.13 1233.99 1521.27 1188.71 1542.86 1141.22L1447.31 1056.36C1465.6 1009.46 1478.66 960.692 1486.28 910.923L1611.46 885.212C1616.51 833.29 1616.51 781.001 1611.46 729.079L1486.28 703.372C1478.66 653.61 1465.6 604.829 1447.31 557.931L1542.86 473.071C1521.27 425.579 1495.13 380.302 1464.8 337.86L1343.53 378.181C1312.06 338.892 1276.35 303.192 1237.06 271.712L1277.39 150.442C1234.94 120.122 1189.66 93.9697 1142.18 72.3799L1057.32 167.942C1010.41 149.649 961.641 136.579 911.879 128.97L886.16 3.78223ZM808.102 293.981C1091.32 293.981 1321.26 523.923 1321.26 807.149C1321.26 1090.37 1091.32 1320.31 808.102 1320.31C524.879 1320.31 294.941 1090.37 294.941 807.149C294.941 523.923 524.879 293.981 808.102 293.981ZM809.551 358.001C1056.8 358.802 1257.25 559.751 1257.25 807.149C1257.25 1054.54 1056.8 1255.49 809.551 1256.29L808.102 1256.3C560.211 1256.3 358.949 1055.04 358.949 807.149C358.949 559.251 560.211 358.001 808.102 358.001H809.551ZM808.102 440.97C707.051 440.97 615.52 482.001 549.238 548.282C482.961 614.56 441.922 706.103 441.922 807.149C441.922 908.192 482.961 999.731 549.238 1066.01C615.52 1132.29 707.051 1173.32 808.102 1173.32H809.281C909.859 1173 1000.94 1132.03 1066.96 1066.01C1133.24 999.731 1174.28 908.192 1174.28 807.149C1174.28 706.103 1133.24 614.56 1066.96 548.282C1000.94 482.263 909.859 441.29 809.281 440.97H808.102Z" fill="black"/>
<path fill-rule="evenodd" clip-rule="evenodd" d="M1425.31 1458.88C1410.58 1457.45 1395.75 1457.45 1381.03 1458.88L1373.74 1494.38C1359.63 1496.54 1345.79 1500.25 1332.49 1505.43L1308.43 1478.34C1294.96 1484.46 1282.12 1491.87 1270.09 1500.47L1281.52 1534.86C1270.38 1543.79 1260.25 1553.91 1251.33 1565.06L1216.94 1553.62C1208.34 1565.66 1200.92 1578.5 1194.8 1591.96L1221.9 1616.03C1216.71 1629.33 1213.01 1643.16 1210.85 1657.27L1175.35 1664.57C1173.92 1679.29 1173.92 1694.12 1175.35 1708.84L1210.85 1716.13C1213.01 1730.24 1216.71 1744.08 1221.9 1757.38L1194.8 1781.44C1200.92 1794.91 1208.34 1807.75 1216.94 1819.78L1251.33 1808.35C1260.25 1819.49 1270.38 1829.62 1281.52 1838.54L1270.09 1872.93C1282.12 1881.53 1294.96 1888.95 1308.43 1895.07L1332.49 1867.97C1345.79 1873.16 1359.63 1876.86 1373.74 1879.02L1381.03 1914.52C1395.75 1915.95 1410.58 1915.95 1425.31 1914.52L1432.6 1879.02C1446.71 1876.86 1460.54 1873.16 1473.84 1867.97L1497.91 1895.07C1511.37 1888.95 1524.21 1881.53 1536.25 1872.93L1524.81 1838.54C1535.96 1829.62 1546.08 1819.49 1555.01 1808.35L1589.4 1819.78C1598 1807.75 1605.41 1794.91 1611.53 1781.44L1584.44 1757.38C1589.62 1744.08 1593.33 1730.24 1595.49 1716.13L1630.99 1708.84C1632.42 1694.12 1632.42 1679.29 1630.99 1664.57L1595.49 1657.27C1593.33 1643.16 1589.62 1629.33 1584.44 1616.03L1611.53 1591.96C1605.41 1578.5 1598 1565.66 1589.4 1553.62L1555.01 1565.06C1546.08 1553.91 1535.96 1543.79 1524.81 1534.86L1536.25 1500.47C1524.21 1491.87 1511.37 1484.46 1497.91 1478.34L1473.84 1505.43C1460.54 1500.25 1446.71 1496.54 1432.6 1494.38L1425.31 1458.88ZM1403.17 1640.92C1428.43 1640.92 1448.95 1661.44 1448.95 1686.7C1448.95 1711.97 1428.43 1732.48 1403.17 1732.48C1377.9 1732.48 1357.39 1711.97 1357.39 1686.7C1357.39 1661.44 1377.9 1640.92 1403.17 1640.92Z" fill="black"/>
</svg>
